<svg xmlns="http://www.w3.org/2000/svg" width="347.4" height="397.894" viewBox="0 0 347.4 397.894">
  <g id="Grupo_13" data-name="Grupo 13" transform="translate(-76.3 -34.506)">
    <path id="Caminho_21" data-name="Caminho 21" d="M423.5,212c-.1-8.9-.4-14.7-.8-22.7l-.1-1.8c-.8-16.7-3.2-29.8-8-42.2a89.09,89.09,0,0,0-51.1-51.2c-12.4-4.8-25.4-7.3-42.2-8.1-13.7-.6-20.2-.8-38.9-1l21.9-23.7a15.656,15.656,0,0,0,4.2-11.5,16.173,16.173,0,0,0-28.1-10L250,72.8,219.8,39.9a16.441,16.441,0,0,0-22.9-1.1,15.855,15.855,0,0,0-5.3,11.1,15.656,15.656,0,0,0,4.2,11.5L217.6,85c-18.3.1-25.3.3-38.9.9-16.7.9-29.7,3.4-42.2,8.1a89.849,89.849,0,0,0-51.1,51.2c-4.8,12.4-7.3,25.5-8.1,42.2-.8,18.3-1,24.4-1,71.2s.2,52.9,1,71.3c.8,16.9,3.3,29.9,8.1,42.2a89.849,89.849,0,0,0,51.1,51.2c12.3,4.8,25.4,7.3,42.3,8.1,18.3.8,23.8,1,71.3,1s53-.2,71.3-1c16.9-.8,30-3.3,42.2-8.1a85.848,85.848,0,0,0,31-20.2,84.7,84.7,0,0,0,20.1-31c4.8-12.4,7.3-25.4,8-42.2.9-17.8,1-23.2,1-71.3,0-22.5,0-36.5-.2-46.6m-33,46.7c0,24.1,0,36.4-.2,45.5-.2,9.3-.4,15.2-.8,24.1v.1c-.8,16.7-3.6,25.8-5.9,31.8a51.5,51.5,0,0,1-12.7,19.5,53.99,53.99,0,0,1-19.5,12.7c-6,2.4-15,5.2-31.7,5.9-17.8.8-23.2,1-69.7,1s-51.9-.2-69.7-1c-16.6-.7-25.7-3.5-31.7-5.9a56.313,56.313,0,0,1-32.2-32.2c-2.3-6.1-5.1-15.3-5.8-31.8-.8-17.6-1-22.3-1-69.7s.2-52.1,1-69.7c.7-16.6,3.5-25.7,5.8-31.7a51.5,51.5,0,0,1,12.7-19.5,52.767,52.767,0,0,1,19.5-12.7c6.1-2.3,15.2-5.1,31.7-5.9,18-.8,23.4-1,69.7-1s51.8.2,69.7,1c16.6.7,25.7,3.5,31.7,5.9a52.767,52.767,0,0,1,19.5,12.7,51.5,51.5,0,0,1,12.7,19.5c2.3,5.8,5.1,14.7,5.9,31.7.9,17.9,1,23.4,1,69.7" fill="#fff"/>
    <path id="Caminho_22" data-name="Caminho 22" d="M235.7,284.7V260.3a2.078,2.078,0,0,0-2.7-2l-67.5,19.4a15.612,15.612,0,0,1-19.9-13.9,15.812,15.812,0,0,1,11.7-16.2l93.7-27a12.53,12.53,0,0,1,16,12V257a2.078,2.078,0,0,0,2.7,2l64.9-18.7a15.612,15.612,0,0,1,19.9,13.9,15.812,15.812,0,0,1-11.7,16.2l-91.1,26.3a12.5,12.5,0,0,1-16-12" fill="#fff"/>
  </g>
</svg>
